M48
; DRILL file {KiCad 6.0.6-3a73a75311~116~ubuntu20.04.1} date vr 16 dec 2022 15:29:53 CET
; FORMAT={-:-/ absolute / inch / decimal}
; #@! TF.CreationDate,2022-12-16T15:29:53+01:00
; #@! TF.GenerationSoftware,Kicad,Pcbnew,6.0.6-3a73a75311~116~ubuntu20.04.1
; #@! TF.FileFunction,Plated,1,2,PTH
FMAT,2
INCH
; #@! TA.AperFunction,Plated,PTH,ComponentDrill
T1C0.0295
; #@! TA.AperFunction,Plated,PTH,ComponentDrill
T2C0.0315
; #@! TA.AperFunction,Plated,PTH,ComponentDrill
T3C0.0394
; #@! TA.AperFunction,Plated,PTH,ComponentDrill
T4C0.0433
; #@! TA.AperFunction,Plated,PTH,ComponentDrill
T5C0.0591
%
G90
G05
T1
X4.0839Y-2.6165
X4.1339Y-2.6165
X4.1839Y-2.6165
X4.35Y-2.6442
X4.4Y-2.6442
X4.45Y-2.6442
T2
X3.0408Y-4.2941
X3.0471Y-3.437
X3.1408Y-4.2941
X3.1471Y-3.437
X3.2408Y-4.2941
X3.2471Y-3.437
X3.3408Y-4.2941
X3.3471Y-3.437
X3.4408Y-4.2941
X3.4471Y-3.437
X3.5408Y-4.2941
X3.5471Y-3.437
X3.6408Y-4.2941
X3.6471Y-3.437
X3.7408Y-4.2941
X3.7471Y-3.437
X3.8408Y-4.2941
X3.8471Y-3.437
X3.9408Y-4.2941
X3.9471Y-3.437
X4.0311Y-2.8441
X4.0311Y-3.2441
X4.0408Y-4.2941
X4.0471Y-3.437
X4.1408Y-4.2941
X4.1471Y-3.437
X4.2408Y-4.2941
X4.2471Y-3.437
X4.2756Y-2.8409
X4.2756Y-3.2409
X4.3408Y-4.2941
X4.3471Y-3.437
X4.4408Y-4.2941
X4.4471Y-3.437
X4.47Y-2.8428
X4.47Y-3.2428
X4.5408Y-4.2941
X4.5471Y-3.437
X4.6408Y-4.2941
X4.6471Y-3.437
X4.7407Y-4.2939
X4.7471Y-3.437
X4.8407Y-4.2939
X4.8471Y-3.437
X4.8483Y-3.1457
X4.9861Y-3.1457
T3
X3.16Y-2.33
X3.16Y-2.43
X3.16Y-2.53
X3.16Y-2.63
X3.16Y-2.73
X3.16Y-2.83
X3.55Y-2.33
X3.55Y-2.43
X3.55Y-2.53
X3.55Y-2.63
X3.55Y-2.73
X3.55Y-2.83
X3.8827Y-2.9437
X3.8827Y-3.0437
X3.8827Y-3.1437
X3.8827Y-3.2437
X3.9874Y-1.9579
X4.0874Y-1.9579
X4.1874Y-1.9579
X4.2874Y-1.9579
T4
X3.9828Y-2.18
X3.9828Y-2.28
X3.9828Y-2.38
T5
X4.8855Y-2.1385
X5.0824Y-2.1385
T0
M30
