M48
; DRILL file {KiCad 6.0.6-3a73a75311~116~ubuntu20.04.1} date vr 23 dec 2022 18:10:37 CET
; FORMAT={-:-/ absolute / inch / decimal}
; #@! TF.CreationDate,2022-12-23T18:10:37+01:00
; #@! TF.GenerationSoftware,Kicad,Pcbnew,6.0.6-3a73a75311~116~ubuntu20.04.1
; #@! TF.FileFunction,Plated,1,2,PTH
FMAT,2
INCH
; #@! TA.AperFunction,Plated,PTH,ComponentDrill
T1C0.0295
; #@! TA.AperFunction,Plated,PTH,ComponentDrill
T2C0.0315
; #@! TA.AperFunction,Plated,PTH,ComponentDrill
T3C0.0394
; #@! TA.AperFunction,Plated,PTH,ComponentDrill
T4C0.0433
; #@! TA.AperFunction,Plated,PTH,ComponentDrill
T5C0.0512
; #@! TA.AperFunction,Plated,PTH,ComponentDrill
T6C0.0520
; #@! TA.AperFunction,Plated,PTH,ComponentDrill
T7C0.0591
%
G90
G05
T1
X3.8689Y-2.6648
X3.9189Y-2.6648
X3.9689Y-2.6648
X4.135Y-2.6642
X4.185Y-2.6642
X4.235Y-2.6642
T2
X3.0471Y-3.437
X3.0471Y-4.3327
X3.1471Y-3.437
X3.1471Y-4.3327
X3.2471Y-3.437
X3.2471Y-4.3327
X3.3471Y-3.437
X3.3471Y-4.3327
X3.4471Y-3.437
X3.4471Y-4.3327
X3.5471Y-3.437
X3.5471Y-4.3327
X3.6471Y-3.437
X3.6471Y-4.3327
X3.7471Y-3.437
X3.7471Y-4.3327
X3.8471Y-3.437
X3.8471Y-4.3327
X3.8855Y-2.8331
X3.8855Y-3.2331
X3.9471Y-3.437
X3.9471Y-4.3327
X4.0471Y-3.437
X4.0471Y-4.3327
X4.0878Y-2.8331
X4.0878Y-3.2331
X4.1471Y-3.437
X4.1471Y-4.3327
X4.2471Y-3.437
X4.2471Y-4.3327
X4.29Y-2.8331
X4.29Y-3.2331
X4.3471Y-3.437
X4.3471Y-4.3327
X4.4471Y-3.437
X4.4471Y-4.3327
X4.5471Y-3.437
X4.5471Y-4.3327
X4.5999Y-3.135
X4.6471Y-3.437
X4.6471Y-4.3327
X4.7377Y-3.135
X4.747Y-4.3325
X4.7471Y-3.437
X4.847Y-4.3325
X4.8471Y-3.437
T3
X3.035Y-2.21
X3.035Y-2.31
X3.035Y-2.41
X3.035Y-2.51
X3.035Y-2.61
X3.035Y-2.71
X3.425Y-2.21
X3.425Y-2.31
X3.425Y-2.41
X3.425Y-2.51
X3.425Y-2.61
X3.425Y-2.71
X3.7371Y-2.9328
X3.7371Y-3.0328
X3.7371Y-3.1328
X3.7371Y-3.2328
X3.9874Y-1.9579
X4.0874Y-1.9579
X4.1874Y-1.9579
X4.2874Y-1.9579
X5.005Y-3.575
X5.105Y-3.575
X5.205Y-3.575
T4
X3.6778Y-2.24
X3.6778Y-2.34
X3.6778Y-2.44
T5
X3.37Y-3.02
X3.5078Y-3.02
T6
X4.5591Y-3.6614
X4.5591Y-3.8583
T7
X4.605Y-2.145
X4.8019Y-2.145
T0
M30
