M48
; DRILL file {KiCad 6.0.6-3a73a75311~116~ubuntu20.04.1} date vr 20 jan 2023 09:52:40 CET
; FORMAT={-:-/ absolute / inch / decimal}
; #@! TF.CreationDate,2023-01-20T09:52:40+01:00
; #@! TF.GenerationSoftware,Kicad,Pcbnew,6.0.6-3a73a75311~116~ubuntu20.04.1
; #@! TF.FileFunction,Plated,1,2,PTH
FMAT,2
INCH
; #@! TA.AperFunction,Plated,PTH,ComponentDrill
T1C0.0295
; #@! TA.AperFunction,Plated,PTH,ComponentDrill
T2C0.0315
; #@! TA.AperFunction,Plated,PTH,ComponentDrill
T3C0.0394
; #@! TA.AperFunction,Plated,PTH,ComponentDrill
T4C0.0520
; #@! TA.AperFunction,Plated,PTH,ComponentDrill
T5C0.0591
%
G90
G05
T1
X3.92Y-3.055
X3.97Y-3.055
X4.02Y-3.055
T2
X3.0454Y-3.4655
X3.0454Y-4.3612
X3.0454Y-4.4612
X3.1454Y-3.4655
X3.1454Y-4.3612
X3.1454Y-4.4612
X3.2454Y-3.4655
X3.2454Y-4.3612
X3.2454Y-4.4612
X3.3454Y-3.4655
X3.3454Y-4.3612
X3.3454Y-4.4612
X3.4454Y-3.4655
X3.4454Y-4.3612
X3.4454Y-4.4612
X3.5454Y-3.4655
X3.5454Y-4.3612
X3.5454Y-4.4612
X3.5761Y-1.96
X3.5761Y-2.145
X3.625Y-2.725
X3.6454Y-3.4655
X3.6454Y-4.3612
X3.6454Y-4.4612
X3.7454Y-3.4655
X3.7454Y-4.3612
X3.7454Y-4.4612
X3.7761Y-1.96
X3.7761Y-2.145
X3.825Y-2.725
X3.8454Y-3.4655
X3.8454Y-4.3612
X3.8454Y-4.4612
X3.905Y-3.24
X3.9454Y-3.4655
X3.9454Y-4.3612
X3.9454Y-4.4612
X3.948Y-4.05
X3.948Y-4.25
X3.97Y-2.725
X3.97Y-2.925
X4.0454Y-3.4655
X4.0454Y-4.3612
X4.0454Y-4.4612
X4.105Y-3.24
X4.1454Y-3.4655
X4.1454Y-4.3612
X4.1454Y-4.4612
X4.2454Y-3.4655
X4.2454Y-4.3612
X4.2454Y-4.4612
X4.3Y-3.16
X4.3454Y-3.4655
X4.3454Y-4.3612
X4.3454Y-4.4612
X4.4378Y-3.16
X4.4454Y-3.4655
X4.4454Y-4.3612
X4.4454Y-4.4612
X4.5454Y-3.4655
X4.5454Y-4.3612
X4.5454Y-4.4612
X4.6454Y-3.4655
X4.6454Y-4.3612
X4.6454Y-4.4612
X4.7453Y-4.361
X4.7453Y-4.461
X4.7454Y-3.4655
X4.8453Y-4.361
X4.8453Y-4.461
X4.8454Y-3.4655
T3
X3.035Y-2.21
X3.035Y-2.31
X3.035Y-2.41
X3.035Y-2.51
X3.035Y-2.61
X3.035Y-2.71
X3.045Y-4.215
X3.145Y-4.215
X3.425Y-2.21
X3.425Y-2.31
X3.425Y-2.41
X3.425Y-2.51
X3.425Y-2.61
X3.425Y-2.71
X3.585Y-2.96
X3.585Y-3.06
X3.585Y-3.16
X3.585Y-3.26
X3.9874Y-1.9579
X4.0874Y-1.9579
X4.1874Y-1.9579
X4.2874Y-1.9579
X5.015Y-3.86
X5.025Y-4.045
X5.025Y-4.145
X5.025Y-4.245
X5.115Y-3.86
X5.215Y-3.86
T4
X4.5591Y-3.6614
X4.5591Y-3.8583
T5
X4.495Y-2.16
X4.6919Y-2.16
X5.0572Y-2.0192
X5.254Y-2.0192
T0
M30
