%TF.GenerationSoftware,KiCad,Pcbnew,6.0.6-3a73a75311~116~ubuntu20.04.1*%
%TF.CreationDate,2023-01-20T09:52:42+01:00*%
%TF.ProjectId,base,62617365-2e6b-4696-9361-645f70636258,rev?*%
%TF.SameCoordinates,Original*%
%TF.FileFunction,Copper,L2,Bot*%
%TF.FilePolarity,Positive*%
%FSLAX46Y46*%
G04 Gerber Fmt 4.6, Leading zero omitted, Abs format (unit mm)*
G04 Created by KiCad (PCBNEW 6.0.6-3a73a75311~116~ubuntu20.04.1) date 2023-01-20 09:52:42*
%MOMM*%
%LPD*%
G01*
G04 APERTURE LIST*
%TA.AperFunction,ComponentPad*%
%ADD10C,1.600000*%
%TD*%
%TA.AperFunction,ComponentPad*%
%ADD11O,1.600000X1.600000*%
%TD*%
%TA.AperFunction,ComponentPad*%
%ADD12R,3.960000X1.980000*%
%TD*%
%TA.AperFunction,ComponentPad*%
%ADD13O,3.960000X1.980000*%
%TD*%
%TA.AperFunction,ComponentPad*%
%ADD14R,1.700000X1.700000*%
%TD*%
%TA.AperFunction,ComponentPad*%
%ADD15O,1.700000X1.700000*%
%TD*%
%TA.AperFunction,ComponentPad*%
%ADD16R,1.050000X1.500000*%
%TD*%
%TA.AperFunction,ComponentPad*%
%ADD17O,1.050000X1.500000*%
%TD*%
%TA.AperFunction,ComponentPad*%
%ADD18R,1.600000X1.600000*%
%TD*%
%TA.AperFunction,ComponentPad*%
%ADD19R,1.200000X2.000000*%
%TD*%
%TA.AperFunction,ComponentPad*%
%ADD20O,1.200000X2.000000*%
%TD*%
%TA.AperFunction,ComponentPad*%
%ADD21C,3.000000*%
%TD*%
%TA.AperFunction,ComponentPad*%
%ADD22R,3.000000X3.000000*%
%TD*%
G04 APERTURE END LIST*
D10*
%TO.P,R1,1*%
%TO.N,GND*%
X100279200Y-102870000D03*
D11*
%TO.P,R1,2*%
%TO.N,CAB_EN*%
X100279200Y-107950000D03*
%TD*%
D12*
%TO.P,J6,1,Pin_1*%
%TO.N,GND*%
X115800000Y-93000000D03*
D13*
%TO.P,J6,2,Pin_2*%
X115800000Y-98000000D03*
%TD*%
D10*
%TO.P,R8,1*%
%TO.N,SEL0*%
X95914000Y-54483000D03*
D11*
%TO.P,R8,2*%
%TO.N,Net-(J2-Pad2)*%
X90834000Y-54483000D03*
%TD*%
D14*
%TO.P,J8,1,Pin_1*%
%TO.N,GND*%
X127635000Y-102743000D03*
D15*
%TO.P,J8,2,Pin_2*%
%TO.N,5V*%
X127635000Y-105283000D03*
%TO.P,J8,3,Pin_3*%
%TO.N,CAB_EN*%
X127635000Y-107823000D03*
%TD*%
D16*
%TO.P,Q1,1,C*%
%TO.N,Net-(Q1-Pad1)*%
X102108000Y-77597000D03*
D17*
%TO.P,Q1,2,B*%
%TO.N,Net-(Q1-Pad2)*%
X100838000Y-77597000D03*
%TO.P,Q1,3,E*%
%TO.N,GDA_L*%
X99568000Y-77597000D03*
%TD*%
D14*
%TO.P,SW1,1,1*%
%TO.N,CAB_RESET*%
X79883000Y-107061000D03*
D15*
%TO.P,SW1,2,2*%
%TO.N,GND*%
X77343000Y-107061000D03*
%TD*%
D10*
%TO.P,R4,1*%
%TO.N,Tx*%
X100838000Y-69215000D03*
D11*
%TO.P,R4,2*%
%TO.N,Net-(Q1-Pad2)*%
X100838000Y-74295000D03*
%TD*%
D14*
%TO.P,U3,1,Pin_1*%
%TO.N,3V3*%
X91059000Y-82804000D03*
D15*
%TO.P,U3,2,Pin_2*%
%TO.N,GND*%
X91059000Y-80264000D03*
%TO.P,U3,3,Pin_3*%
%TO.N,SCL*%
X91059000Y-77724000D03*
%TO.P,U3,4,Pin_4*%
%TO.N,SDA*%
X91059000Y-75184000D03*
%TD*%
D14*
%TO.P,J5,1,Pin_1*%
%TO.N,GND*%
X132461000Y-98044000D03*
D15*
%TO.P,J5,2,Pin_2*%
%TO.N,Din*%
X129921000Y-98044000D03*
%TO.P,J5,3,Pin_3*%
%TO.N,5V*%
X127381000Y-98044000D03*
%TD*%
D14*
%TO.P,J1,1,Pin_1*%
%TO.N,VBUS*%
X108900000Y-49730000D03*
D15*
%TO.P,J1,2,Pin_2*%
%TO.N,CAB_GROUND*%
X106360000Y-49730000D03*
%TO.P,J1,3,Pin_3*%
%TO.N,GDA_H*%
X103820000Y-49730000D03*
%TO.P,J1,4,Pin_4*%
%TO.N,SEL0*%
X101280000Y-49730000D03*
%TD*%
D10*
%TO.P,D3,1,K*%
%TO.N,Tx*%
X97155000Y-69215000D03*
%TO.P,D3,2,A*%
%TO.N,GDA_L*%
X92075000Y-69215000D03*
%TD*%
%TO.P,C5,2*%
%TO.N,GND*%
X112720000Y-80264000D03*
D18*
%TO.P,C5,1*%
%TO.N,5V*%
X109220000Y-80264000D03*
%TD*%
D10*
%TO.P,R7,1*%
%TO.N,GDA_H*%
X95914000Y-49784000D03*
D11*
%TO.P,R7,2*%
%TO.N,Net-(J2-Pad1)*%
X90834000Y-49784000D03*
%TD*%
D10*
%TO.P,R6,1*%
%TO.N,Net-(Q1-Pad1)*%
X99187000Y-82296000D03*
D11*
%TO.P,R6,2*%
%TO.N,Rx*%
X104267000Y-82296000D03*
%TD*%
D14*
%TO.P,J2,1,Pin_1*%
%TO.N,Net-(J2-Pad1)*%
X86995000Y-56134000D03*
D15*
%TO.P,J2,2,Pin_2*%
%TO.N,Net-(J2-Pad2)*%
X86995000Y-58674000D03*
%TO.P,J2,3,Pin_3*%
%TO.N,5V*%
X86995000Y-61214000D03*
%TO.P,J2,4,Pin_4*%
%TO.N,GND*%
X86995000Y-63754000D03*
%TO.P,J2,5,Pin_5*%
%TO.N,unconnected-(J2-Pad5)*%
X86995000Y-66294000D03*
%TO.P,J2,6,Pin_6*%
%TO.N,unconnected-(J2-Pad6)*%
X86995000Y-68834000D03*
%TD*%
D14*
%TO.P,J3,1,Pin_1*%
%TO.N,unconnected-(J3-Pad1)*%
X77089000Y-68834000D03*
D15*
%TO.P,J3,2,Pin_2*%
%TO.N,unconnected-(J3-Pad2)*%
X77089000Y-66294000D03*
%TO.P,J3,3,Pin_3*%
%TO.N,GND*%
X77089000Y-63754000D03*
%TO.P,J3,4,Pin_4*%
%TO.N,3V3*%
X77089000Y-61214000D03*
%TO.P,J3,5,Pin_5*%
%TO.N,LV2*%
X77089000Y-58674000D03*
%TO.P,J3,6,Pin_6*%
%TO.N,GDA_L*%
X77089000Y-56134000D03*
%TD*%
D19*
%TO.P,U2,1,3V3*%
%TO.N,3V3*%
X77353560Y-88023402D03*
D20*
%TO.P,U2,2,3V3*%
%TO.N,unconnected-(U2-Pad2)*%
X79893560Y-88023402D03*
%TO.P,U2,3,CHIP_PU*%
%TO.N,unconnected-(U2-Pad3)*%
X82433560Y-88023402D03*
%TO.P,U2,4,GPIO4/ADC1_CH3*%
%TO.N,unconnected-(U2-Pad4)*%
X84973560Y-88023402D03*
%TO.P,U2,5,GPIO5/ADC1_CH4*%
%TO.N,unconnected-(U2-Pad5)*%
X87513560Y-88023402D03*
%TO.P,U2,6,GPIO6/ADC1_CH5*%
%TO.N,unconnected-(U2-Pad6)*%
X90053560Y-88023402D03*
%TO.P,U2,7,GPIO7/ADC1_CH6*%
%TO.N,LV2*%
X92593560Y-88023402D03*
%TO.P,U2,8,GPIO15/ADC2_CH4/32K_P*%
%TO.N,unconnected-(U2-Pad8)*%
X95133560Y-88023402D03*
%TO.P,U2,9,GPIO16/ADC2_CH5/32K_N*%
%TO.N,unconnected-(U2-Pad9)*%
X97673560Y-88023402D03*
%TO.P,U2,10,GPIO17/ADC2_CH6*%
%TO.N,SCL*%
X100213560Y-88023402D03*
%TO.P,U2,11,GPIO18/ADC2_CH7*%
%TO.N,SDA*%
X102753560Y-88023402D03*
%TO.P,U2,12,GPIO8/ADC1_CH7*%
%TO.N,unconnected-(U2-Pad12)*%
X105293560Y-88023402D03*
%TO.P,U2,13,GPIO3/ADC1_CH2*%
%TO.N,Rx*%
X107833560Y-88023402D03*
%TO.P,U2,14,GPIO46*%
%TO.N,GND*%
X110373560Y-88023402D03*
%TO.P,U2,15,GPIO9/ADC1_CH8*%
%TO.N,Tx*%
X112913560Y-88023402D03*
%TO.P,U2,16,GPIO10/ADC1_CH9*%
%TO.N,unconnected-(U2-Pad16)*%
X115453560Y-88023402D03*
%TO.P,U2,17,GPIO11/ADC2_CH0*%
%TO.N,unconnected-(U2-Pad17)*%
X117993560Y-88023402D03*
%TO.P,U2,18,GPIO12/ADC2_CH1*%
%TO.N,unconnected-(U2-Pad18)*%
X120533560Y-88023402D03*
%TO.P,U2,19,GPIO13/ADC2_CH2*%
%TO.N,5V*%
X123073560Y-88023402D03*
%TO.P,U2,20,GPIO14/ADC2_CH3*%
%TO.N,unconnected-(U2-Pad20)*%
X123070840Y-110769722D03*
X123070840Y-113309723D03*
%TO.P,U2,21,5V*%
%TO.N,unconnected-(U2-Pad21)*%
X120530840Y-110769722D03*
X120530840Y-113309723D03*
%TO.P,U2,22,GND*%
%TO.N,unconnected-(U2-Pad22)*%
X117993560Y-110773402D03*
X117993560Y-113313403D03*
%TO.P,U2,23,GND*%
%TO.N,unconnected-(U2-Pad23)*%
X115453560Y-113313403D03*
X115453560Y-110773402D03*
%TO.P,U2,24,GND*%
%TO.N,unconnected-(U2-Pad24)*%
X112913560Y-110773402D03*
X112913560Y-113313403D03*
%TO.P,U2,25,GPIO19/USB_D-*%
%TO.N,unconnected-(U2-Pad25)*%
X110373560Y-113313403D03*
X110373560Y-110773402D03*
%TO.P,U2,26,GPIO20/USB_D+*%
%TO.N,unconnected-(U2-Pad26)*%
X107833560Y-113313403D03*
X107833560Y-110773402D03*
%TO.P,U2,27,GPIO21*%
%TO.N,unconnected-(U2-Pad27)*%
X105293560Y-113313403D03*
X105293560Y-110773402D03*
%TO.P,U2,28,GPIO47*%
%TO.N,unconnected-(U2-Pad28)*%
X102753560Y-113313403D03*
X102753560Y-110773402D03*
%TO.P,U2,29,GPIO48*%
%TO.N,CAB_EN*%
X100213560Y-110773402D03*
X100213560Y-113313403D03*
%TO.P,U2,30,GPIO45*%
%TO.N,Din*%
X97673560Y-110773402D03*
X97673560Y-113313403D03*
%TO.P,U2,31,GPIO0*%
%TO.N,unconnected-(U2-Pad31)*%
X95133560Y-110773402D03*
X95133560Y-113313403D03*
%TO.P,U2,32,GPIO35*%
%TO.N,GND*%
X92593560Y-113313403D03*
X92593560Y-110773402D03*
%TO.P,U2,33,GPIO36*%
%TO.N,unconnected-(U2-Pad33)*%
X90053560Y-113313403D03*
X90053560Y-110773402D03*
%TO.P,U2,34,GPIO37*%
%TO.N,unconnected-(U2-Pad34)*%
X87513560Y-113313403D03*
X87513560Y-110773402D03*
%TO.P,U2,35,GPIO38*%
%TO.N,unconnected-(U2-Pad35)*%
X84973560Y-110773402D03*
X84973560Y-113313403D03*
%TO.P,U2,36,GPIO39/MTCK*%
%TO.N,unconnected-(U2-Pad36)*%
X82433560Y-113313403D03*
X82433560Y-110773402D03*
%TO.P,U2,37,GPIO40/MTDO*%
%TO.N,CAB_RESET*%
X79893560Y-110773402D03*
X79893560Y-113313403D03*
%TO.P,U2,38,GPIO41/MTDI*%
%TO.N,GND*%
X77353560Y-110773402D03*
X77353560Y-113313403D03*
%TD*%
D21*
%TO.P,J4,2,Pin_2*%
%TO.N,GND*%
X119173000Y-54864000D03*
D22*
%TO.P,J4,1,Pin_1*%
%TO.N,VBUS*%
X114173000Y-54864000D03*
%TD*%
%TO.P,J7,1,Pin_1*%
%TO.N,GND*%
X128452500Y-51288500D03*
D21*
%TO.P,J7,2,Pin_2*%
%TO.N,CAB_GROUND*%
X133452500Y-51288500D03*
%TD*%
M02*
